<?xml version="1.0" encoding="utf-8"?>
<!-- Generator: Adobe Illustrator 17.0.0, SVG Export Plug-In . SVG Version: 6.00 Build 0)  -->
<!DOCTYPE svg PUBLIC "-//W3C//DTD SVG 1.1//EN" "http://www.w3.org/Graphics/SVG/1.1/DTD/svg11.dtd">
<svg version="1.1" id="Layer_1" xmlns="http://www.w3.org/2000/svg" xmlns:xlink="http://www.w3.org/1999/xlink" x="0px" y="0px"
	 width="768px" height="307px" viewBox="0 0 768 307" enable-background="new 0 0 768 307" xml:space="preserve">
<path fill="#FFFFFF" d="M496.158,140.274c0,0.442,0,1.726-0.007,1.726H262.252c-0.007,0-0.007-1.284-0.007-1.726
	c0-64.596,52.361-116.963,116.956-116.963S496.158,75.678,496.158,140.274z"/>
<g>
	<path fill="#FFFFFF" d="M323.089,266.325h-15.203v12.754c0,0.549-0.464,1.014-1.056,1.014c-0.549,0-1.013-0.465-1.013-1.014
		v-27.534c0-0.549,0.464-1.014,1.013-1.014c0.591,0,1.056,0.465,1.056,1.014v12.754h15.203v-12.754c0-0.549,0.465-1.014,1.013-1.014
		c0.592,0,1.056,0.465,1.056,1.014v27.534c0,0.549-0.464,1.014-1.056,1.014c-0.549,0-1.013-0.465-1.013-1.014V266.325z"/>
	<path fill="#FFFFFF" d="M355.477,250.108c7.897,0,14.105,6.715,14.147,14.992c-0.042,8.277-6.25,14.992-14.147,14.992
		c-7.981,0-14.232-6.715-14.274-14.992C341.245,256.823,347.496,250.108,355.477,250.108z M355.477,278.023
		c6.504,0,11.993-5.701,12.036-12.922c-0.043-7.306-5.532-12.88-12.036-12.88c-6.715,0-12.205,5.574-12.205,12.88
		C343.273,272.322,348.763,278.023,355.477,278.023z"/>
	<path fill="#FFFFFF" d="M391.75,252.6h-8.911c-0.549,0-1.014-0.464-1.014-1.056c0-0.549,0.465-1.014,1.014-1.014h19.848
		c0.549,0,1.014,0.465,1.014,1.014c0,0.592-0.465,1.056-1.014,1.056h-8.91v26.479c0,0.549-0.465,1.014-1.014,1.014
		s-1.013-0.465-1.013-1.014L391.75,252.6L391.75,252.6z"/>
	<path fill="#FFFFFF" d="M419.491,251.544c0-0.549,0.465-1.014,1.014-1.014h0.084h15.118c0.592,0,1.014,0.465,1.014,1.014
		c0,0.592-0.422,1.056-1.014,1.056H421.56v11.698h12.374c0.549,0,1.013,0.465,1.013,1.056c0,0.549-0.464,1.014-1.013,1.014H421.56
		v11.656h14.147c0.592,0,1.014,0.465,1.014,1.056c0,0.549-0.422,1.014-1.014,1.014h-15.076h-0.127h-0.084
		c-0.507-0.043-0.929-0.465-0.929-1.014L419.491,251.544L419.491,251.544z"/>
	<path fill="#FFFFFF" d="M453.652,280.092h-0.084c-0.549,0-1.014-0.465-1.014-1.014v-27.534c0-0.549,0.465-1.014,1.014-1.014
		c0.592,0,1.056,0.465,1.056,1.014v26.479h14.147c0.592,0,1.056,0.465,1.056,1.056c0,0.549-0.465,1.014-1.056,1.014h-15.119V280.092
		z"/>
</g>
<g>
	<path fill="#FFFFFF" d="M27.697,196.7c0-33.862,18.492-36.605,30.395-36.605c12.116,0,22.424,3.165,22.424,8.228v10.866
		c0,0.527-1.169,0.633-1.594,0.633c-0.319,0-1.488-0.211-1.488-0.633c0-12.553-11.903-15.718-19.342-15.718
		c-7.227,0-19.555,1.582-19.555,33.229c0,26.162,10.84,31.436,19.555,31.436s17.855-2.005,19.98-15.085
		c0-0.316,1.594-0.422,2.126-0.422s2.232,0.106,2.126,0.422c-1.7,15.507-11.903,20.148-24.231,20.148
		C45.977,233.199,27.697,230.351,27.697,196.7z"/>
	<path fill="#FFFFFF" d="M154.697,196.7c0,34.812-19.343,36.605-30.183,36.605c-10.627,0-30.395-1.688-30.395-36.605
		c0-34.812,19.342-36.499,30.395-36.499C135.674,160.2,154.697,162.205,154.697,196.7z M143.857,196.7
		c0-31.33-11.584-33.229-19.342-33.229c-7.546,0-19.555,1.899-19.555,33.229s12.753,33.229,19.555,33.229
		C132.06,229.929,143.857,228.241,143.857,196.7z"/>
	<path fill="#FFFFFF" d="M163.944,162.627c0-0.633,0.106-1.582,0.531-1.582h27.632c0.531,0,0.744,1.161,0.744,1.582
		c0,0.316-0.213,1.477-0.744,1.477c-8.502,0-8.821,2.321-8.821,5.486v41.985c0,15.613,10.096,17.09,17.217,17.09
		c8.077,0,19.555-1.688,19.555-17.406v-41.668c0-3.059-0.106-5.486-8.821-5.486c-0.425,0-0.638-1.055-0.638-1.477
		c0-0.633,0.319-1.582,0.638-1.582h21.574c0.531,0,0.638,1.161,0.638,1.582c0,0.211-0.212,1.477-0.638,1.477
		c-8.715,0-8.927,2.426-8.927,5.486v41.773c0,20.676-15.729,21.731-24.444,21.731c-9.352,0-26.144-1.055-26.144-22.153V169.59
		c0-2.954,0-5.486-8.821-5.486C164.156,164.103,163.944,163.154,163.944,162.627z"/>
	<path fill="#FFFFFF" d="M249.709,222.861v-52.745c0-3.586-1.275-5.907-8.608-5.907c-0.319,0-0.531-1.055-0.531-1.582
		c0-0.633,0.106-1.582,0.531-1.582h15.941c0.744,0,1.488,0.211,1.7,0.527l36.453,51.901c0.531,0.739,1.382,0.739,1.382-0.316v-43.04
		c0-3.481-1.169-5.907-8.715-5.907c-0.531,0-0.638-1.055-0.638-1.582c0-0.633,0.106-1.582,0.638-1.582h21.255
		c0.531,0,0.638,1.266,0.638,1.477c0,0.317-0.106,1.688-0.638,1.688c-8.077,0-8.715,2.743-8.715,6.013v62.45
		c0,0.422-1.169,0.422-1.488,0.422s-1.275,0-1.594-0.422l-42.191-59.918c-0.531-0.844-1.382-0.739-1.382,0.316v49.791
		c0,2.849,0.425,6.013,8.608,6.013c0.638,0,0.638,1.161,0.638,1.582c0,0.422-0.106,1.582-0.638,1.582H241.1
		c-0.319,0-0.531-0.95-0.531-1.582c0-0.633,0.212-1.582,0.531-1.582C248.752,228.874,249.709,226.342,249.709,222.861z"/>
	<path fill="#FFFFFF" d="M329.947,232.039c-0.319,0-0.531-0.95-0.531-1.582c0-0.633,0.106-1.582,0.531-1.582
		c8.396,0,8.821-3.059,8.821-6.013v-50.108c0-8.123-2.976-8.334-6.271-8.334h-5.207c-3.507,0-6.058,1.266-8.29,10.654
		c-0.106,0.527-1.275,0.633-1.594,0.633s-1.7-0.211-1.594-0.633c0-0.422,1.594-12.764,1.7-13.186
		c0.106-0.527,0.531-0.844,1.063-0.844h50.906c0.531,0,0.957,0.317,1.063,0.739c0,0.527,1.594,12.87,1.594,13.292
		c0.107,0.422-0.956,0.633-1.488,0.633c-0.638,0-1.594-0.106-1.701-0.633c-2.019-8.966-4.57-10.654-8.289-10.654h-5.42
		c-3.188,0-6.377,0.317-6.377,8.334v50.108c0,2.849,0.319,6.013,8.821,6.013c0.531,0,0.638,1.055,0.638,1.582
		s-0.107,1.582-0.638,1.582h-27.737V232.039z"/>
	<path fill="#FFFFFF" d="M395.094,232.039c-0.319,0-0.531-1.055-0.531-1.688c0-0.527,0.106-1.477,0.531-1.477
		c8.502,0,8.927-3.164,8.927-6.013V201.13c0,0-14.773-27.639-16.579-31.014c-1.7-3.27-4.145-6.013-10.734-6.013
		c-0.425,0-0.744-0.844-0.744-1.477c0-0.844,0.212-1.582,0.744-1.582h27.1c0.426,0,0.638,1.055,0.638,1.582
		c0,0.316-0.107,1.477-0.638,1.477c-7.864,0-6.695,3.27-5.207,6.013l12.859,23.736c0.426,0.949,1.807,0.949,2.338,0l12.754-23.736
		c1.807-3.376,2.125-6.013-5.102-6.013c-0.425,0-0.637-0.949-0.637-1.477c0-0.739,0.212-1.582,0.637-1.582h19.98
		c0.637,0,0.637,1.161,0.637,1.582c0,0.211,0,1.477-0.637,1.477c-6.802,0-9.14,2.848-10.734,6.013
		c-4.57,8.123-12.966,24.579-16.685,31.014v21.731c0,2.954,0.531,6.013,8.821,6.013c0.531,0,0.637,1.161,0.637,1.477
		c0,0.422-0.106,1.688-0.637,1.688L395.094,232.039L395.094,232.039z"/>
	<path fill="#FFFFFF" d="M484.047,222.861v-52.745c0-3.798-1.382-5.907-8.821-5.907c-0.426,0-0.531-1.055-0.531-1.582
		c0-0.633,0.106-1.582,0.531-1.582h27.738c0.531,0,0.637,1.266,0.637,1.582c0,0.211-0.106,1.582-0.531,1.582
		c-7.12,0-8.927,1.688-8.927,5.907v23.313h22.425c8.502,0,8.927-2.637,8.927-6.013v-17.301c0-4.008-1.701-5.907-8.927-5.907
		c-0.319,0-0.531-1.055-0.531-1.582c0-0.633,0.106-1.582,0.531-1.582h27.844c0.426,0,0.638,1.055,0.638,1.582
		c0,0.316-0.212,1.582-0.638,1.582c-7.439,0-8.821,2.11-8.821,5.907v52.745c0,3.692,1.063,6.119,8.821,6.119
		c0.531,0,0.638,1.16,0.638,1.477c0,0.422-0.107,1.582-0.638,1.582h-27.844c-0.426,0-0.531-0.95-0.531-1.582
		c0-0.633,0.106-1.477,0.531-1.477c7.333,0,8.927-2.11,8.927-6.119V196.7H503.07c-8.396,0-8.927,2.743-8.927,6.013v20.149
		c0,3.586,1.063,6.119,8.927,6.119c0.426,0,0.531,1.055,0.531,1.477c0,0.422-0.106,1.582-0.531,1.582h-27.844
		c-0.426,0-0.531-0.95-0.531-1.582c0-0.739,0.106-1.477,0.531-1.477C481.177,228.98,484.047,227.714,484.047,222.861z"/>
	<path fill="#FFFFFF" d="M550.15,230.456c0-0.422,0.212-1.477,0.744-1.477c3.295,0,7.759-0.633,9.884-5.696
		c1.807-4.747,25.4-61.923,25.506-62.345c0.212-0.422,0.426-0.422,0.744-0.422c0.319,0,0.638,0,0.85,0.422l22.85,62.555
		c1.7,4.536,5.632,5.486,9.352,5.486c0.425,0,0.638,1.055,0.638,1.477c0,0.527-0.213,1.582-0.638,1.582h-27.1
		c-0.426,0-0.638-0.95-0.638-1.582c0-0.527,0.212-1.477,0.638-1.477c4.994,0,8.396-1.161,6.802-5.696
		c-1.169-3.587-4.039-11.815-4.039-11.815h-16.792c-8.821,0-10.096,2.848-11.265,5.591l-2.55,6.329
		c-1.488,4.325,1.488,5.591,6.483,5.591c0.531,0,0.744,1.055,0.744,1.477c0,0.527-0.212,1.582-0.744,1.582h-20.724
		C550.362,232.039,550.15,230.984,550.15,230.456z M586.178,208.092c6.164,0,7.865-1.899,6.483-5.696
		c-1.488-4.219-7.759-22.68-8.183-23.524c-0.319-0.949-1.275-0.949-1.594-0.106c-0.425,0.949-11.69,29.326-11.69,29.326H586.178z"/>
	<path fill="#FFFFFF" d="M627.094,232.039c-0.319,0-0.638-0.844-0.638-1.582s0.212-1.477,0.638-1.477
		c8.183,0,8.821-2.954,8.821-6.119c0-11.709,0.107-40.719,0.107-52.745c0-3.376-0.957-5.907-8.927-5.907
		c-0.425,0-0.638-1.055-0.638-1.582c0-0.739,0.212-1.582,0.638-1.582h27.844c0.426,0,0.531,1.161,0.531,1.582
		c0,0.211-0.106,1.582-0.531,1.582c-8.396,0-8.927,2.848-8.927,5.907v52.534c0,3.06,0.425,6.013,8.927,6.013h11.159
		c3.932,0,6.27-2.005,8.183-10.76c0.107-0.527,1.169-0.527,1.701-0.527c0.531,0,1.594,0.21,1.594,0.527
		c-0.107,0.422-1.701,12.764-1.701,13.292c-0.106,0.527-0.637,0.844-0.956,0.844H627.094z"/>
	<path fill="#FFFFFF" d="M685.758,232.039c-0.319,0-0.638-0.844-0.638-1.582s0.212-1.477,0.638-1.477
		c8.183,0,8.821-2.954,8.821-6.119c0-11.709,0.107-40.719,0.107-52.745c0-3.376-0.957-5.907-8.927-5.907
		c-0.426,0-0.638-1.055-0.638-1.582c0-0.739,0.212-1.582,0.638-1.582h27.844c0.425,0,0.531,1.161,0.531,1.582
		c0,0.211-0.106,1.582-0.531,1.582c-8.396,0-8.927,2.848-8.927,5.907v52.534c0,3.06,0.426,6.013,8.927,6.013h11.159
		c3.932,0,6.27-2.005,8.183-10.76c0.107-0.527,1.169-0.527,1.701-0.527c0.531,0,1.594,0.21,1.594,0.527
		c-0.107,0.422-1.701,12.764-1.701,13.292c-0.106,0.527-0.637,0.844-0.956,0.844H685.758z"/>
</g>
<g>
	<g>
		<g>
			<path fill="#333333" d="M390.32,41.566v0.962h0.962v-0.962H390.32z"/>
			<path fill="#333333" d="M402.885,89.966v0.233h0.466v-0.233H402.885z"/>
			<path fill="#333333" d="M383.005,120h-4.58c0.725,0,1.499-0.219,2.291-0.219C381.505,119.781,382.28,120,383.005,120z"/>
			<path fill="#333333" d="M350.22,124.934c-0.102,0-0.196,0.195-0.281,0.33c-0.041,0.064-0.082-0.096-0.114,0.137h-0.023
				c0.029-0.233,0.085-0.072,0.126-0.137c0.085-0.134,0.184-0.33,0.286-0.33H350.22z"/>
			<rect x="329.114" y="85.268" fill="#333333" width="0.862" height="4.652"/>
			<rect x="329.114" y="90.523" fill="#333333" width="0.862" height="6.146"/>
			<rect x="329.114" y="97.243" fill="#333333" width="0.862" height="9.649"/>
			<rect x="329.114" y="114.474" fill="#333333" width="0.862" height="4.681"/>
			<rect x="329.114" y="119.758" fill="#333333" width="0.862" height="4.968"/>
			<rect x="329.114" y="125.301" fill="#333333" width="0.862" height="7.007"/>
			<rect x="339.338" y="85.268" fill="#333333" width="0.89" height="4.652"/>
			<rect x="339.338" y="90.523" fill="#333333" width="0.89" height="6.146"/>
			<rect x="339.338" y="97.243" fill="#333333" width="0.89" height="9.649"/>
			<rect x="339.338" y="114.474" fill="#333333" width="0.89" height="4.681"/>
			<rect x="339.338" y="119.758" fill="#333333" width="0.89" height="4.968"/>
			<rect x="339.338" y="125.301" fill="#333333" width="0.89" height="7.007"/>
		</g>
		<path fill="#333333" d="M464,79v2h-21v-2h-8v2h-18V67h-7v7h-12v-3h-3v-4h-5V40h-0.374l0,0H389v2h1v4h-4v-4h2v-2h-2.27l0,0h-0.779
			l0,0H385v2.148l0,0V46h-4v-3.852l0,0V40h-0.724l0,0H379v6h-4v-6h-0.177l0,0H374v2h1v4h-3v-3.852l0,0V40h-1.073l0,0H370v27h-4v4h-3
			v3h-13v-7h-7v14h-17v-2h-6v2h-23v-2h-5v63h177V79H464z M302,132h-5v-6h5V132z M302,126h-5v-12h5V126z M302,107h-5v-9h5V107z
			 M302,98h-5v-8h5V98z M302,89h-5v-4h5V89z M308,132h-6v-6h6V132z M308,126h-6v-12h6V126z M308,107h-6v-9h6V107z M308,98h-6v-8h6
			V98z M308,89h-6v-4h6V89z M315,132h-6v-6h6V132z M315,126h-6v-12h6V126z M315,107h-6v-9h6V107z M315,98h-6v-8h6V98z M315,89h-6v-4
			h6V89z M320,132h-5v-6h5V132z M320,126h-5v-12h5V126z M320,107h-5v-9h5V107z M320,98h-5v-8h5V98z M320,89h-5v-4h5V89z M333,132h-7
			v-6h7V132z M333,126h-7v-12h7V126z M333,107h-7v-9h7V107z M333,98h-7v-8h7V98z M333,89h-7v-4h7V89z M343,132h-7v-6h7V132z
			 M343,126h-7v-12h7V126z M343,107h-7v-9h7V107z M343,98h-7v-8h7V98z M343,89h-7v-4h7V89z M351,84h6v5h-6V84z M351,90h6v8h-6V90z
			 M351,98h6v9h-6V98z M361,138h-11v-10.885c0-0.643-0.164-1.258,0.157-1.821c0.033-0.047-0.086-0.094-0.072-0.147
			c0,0-0.06-0.007-0.053-0.013c0-0.007-0.023-0.02-0.016-0.033c0.007-0.007-0.001-0.02,0.005-0.027c0.034-0.06,0.06-0.114,0.1-0.167
			c0.007-0.013,0.01-0.027,0.023-0.04c0.033-0.054,0.065-0.1,0.105-0.154c1.124-1.399,3.172-2.336,5.534-2.336
			c2.356,0,4.417,0.937,5.541,2.336c0.147,0.187-0.326,0.382-0.212,0.582c0.321,0.562-0.112,1.178-0.112,1.821L361,138L361,138z
			 M363,107h-5v-9h5V107z M363,98h-5v-8h5V98z M363,89h-5v-5h5V89z M385,50h3v7h-3V50z M385,57h3v8h-3V57z M375,111V98h10v13H375z
			 M375,98v-8h10v8H375z M375,89v-5h10v5H375z M378,50h4v7h-4V50z M378,57h4v8h-4V57z M374,50h2v7h-2V50z M374,57h2v8h-2V57z
			 M370,84h4v5h-4V84z M370,90h4v8h-4V90z M370,98h4v13h-4V98z M389,138h-16v-12.805c0-0.161-0.279-0.321-0.253-0.482
			c0.295-2.376,2.584-4.337,5.837-4.966c0.723-0.147,1.416-0.221,2.206-0.221c0.797,0,1.528,0.074,2.251,0.221
			c3.253,0.636,5.66,2.59,5.954,4.966c0.027,0.161,0.004,0.321,0.004,0.482L389,138L389,138z M390,111h-2V98h2V111z M390,98h-2v-8h2
			V98z M390,89h-2v-5h2V89z M404,84h6v5h-6V84z M404,90h6v8h-6V90z M404,98h6v9h-6V98z M398,84h6v5h-6V84z M398,90h6v8h-6V90z
			 M398,98h6v9h-6V98z M410,138h-12v-10.885c0-0.643,0.513-1.258,0.821-1.821c0.127-0.201,0.424-0.395,0.571-0.582
			c1.118-1.399,3.274-2.336,5.637-2.336s3.971,0.937,5.089,2.336c0.127,0.154-0.118,0.321-0.118,0.482V138z M421,132h-4v-6h4V132z
			 M421,126h-4v-12h4V126z M421,107h-4v-9h4V107z M421,98h-4v-8h4V98z M421,89h-4v-4h4V89z M425,132h-4v-6h4V132z M425,126h-4v-12h4
			V126z M425,107h-4v-9h4V107z M425,98h-4v-8h4V98z M425,89h-4v-4h4V89z M431,132h-2v-6h2V132z M431,126h-2v-12h2V126z M431,107h-2
			v-9h2V107z M431,98h-2v-8h2V98z M431,89h-2v-4h2V89z M435,132h-1v-6h1V132z M435,126h-1v-12h1V126z M435,107h-1v-9h1V107z M435,98
			h-1v-8h1V98z M435,89h-1v-4h1V89z M447,132h-4v-6h4V132z M447,126h-4v-12h4V126z M447,107h-4v-9h4V107z M447,98h-4v-8h4V98z
			 M447,89h-4v-4h4V89z M452,132h-4v-6h4V132z M452,126h-4v-12h4V126z M452,107h-4v-9h4V107z M452,98h-4v-8h4V98z M452,89h-4v-4h4
			V89z M459,132h-6v-6h6V132z M459,126h-6v-12h6V126z M459,107h-6v-9h6V107z M459,98h-6v-8h6V98z M459,89h-6v-4h6V89z M464,132h-5
			v-6h5V132z M464,126h-5v-12h5V126z M464,107h-5v-9h5V107z M464,98h-5v-8h5V98z M464,89h-5v-4h5V89z"/>
		<rect x="402.892" y="89.92" fill="#333333" width="0.574" height="0.258"/>
	</g>
	<polyline fill="none" stroke="#FFFFFF" stroke-width="5" stroke-miterlimit="10" points="238,144 249.22,144 262.252,144 
		291.293,144 470.001,144 496.151,144 507.509,144 524,144 	"/>
</g>
<polygon fill="#FFFFFF" points="331.309,45.908 332.398,47.498 334.327,47.503 333.15,49.031 333.742,50.866 331.926,50.219 
	330.363,51.349 330.417,49.422 328.859,48.285 330.709,47.74 "/>
<polygon fill="#FFFFFF" points="416.208,48.054 416.796,48.911 417.835,48.913 417.201,49.737 417.52,50.726 416.541,50.378 
	415.699,50.987 415.727,49.948 414.888,49.335 415.885,49.041 "/>
<polygon fill="#FFFFFF" points="366.32,46.91 365.979,48.318 366.946,49.397 365.502,49.508 364.775,50.761 364.223,49.422 
	362.806,49.118 363.909,48.179 363.761,46.738 364.995,47.497 "/>
<g>
	<path fill="#FFFFFF" d="M333.339,52.25c-7.804,0-14.639-5-17.008-12.442c-1.446-4.544-1.037-9.379,1.154-13.615
		c2.19-4.236,5.899-7.365,10.443-8.812c0.376-0.12,0.605-0.166,0.819-0.166c0.442,0,0.817,0.222,1.004,0.595
		c0.327,0.651-0.057,1.167-0.588,1.881c-1.484,1.993-5.425,7.285-2.341,16.975c2.37,7.446,8.225,10.222,11.039,11.555
		c1.409,0.668,2.185,1.036,2.123,1.955c-0.058,0.858-0.937,1.138-1.226,1.23C336.996,51.966,335.172,52.25,333.339,52.25z"/>
	<g>
		<path fill="#333333" d="M328.747,18.215c1.186,0-7.062,5.61-2.878,18.754c3.758,11.804,15.771,12.469,12.586,13.483
			c-1.7,0.541-3.423,0.799-5.116,0.799c-7.143,0-13.773-4.576-16.055-11.746c-2.823-8.869,2.078-18.348,10.947-21.171
			C328.48,18.255,328.647,18.215,328.747,18.215 M328.747,16.215L328.747,16.215c-0.398,0-0.775,0.103-1.123,0.213
			c-9.906,3.153-15.4,13.778-12.246,23.684c2.502,7.859,9.72,13.139,17.961,13.139c1.936,0,3.862-0.3,5.723-0.893
			c1.581-0.503,1.881-1.541,1.92-2.115c0.108-1.598-1.253-2.243-2.693-2.926c-2.686-1.273-8.276-3.923-10.514-10.955
			c-2.929-9.202,0.79-14.195,2.19-16.075c0.572-0.768,1.284-1.724,0.68-2.927C330.29,16.654,329.563,16.215,328.747,16.215
			L328.747,16.215z"/>
	</g>
</g>
</svg>
